<?xml version="1.0" encoding="UTF-8" standalone="no"?><!-- Generator: Gravit.io --><svg xmlns="http://www.w3.org/2000/svg" xmlns:xlink="http://www.w3.org/1999/xlink" style="isolation:isolate" viewBox="0 0 2400 1200" width="2400pt" height="1200pt"><defs><filter id="Mgri6dLJ5rxqstD4GgSgsubMnpmGWP9Z" x="-200%" y="-200%" width="400%" height="400%" filterUnits="objectBoundingBox" color-interpolation-filters="sRGB"><feGaussianBlur xmlns="http://www.w3.org/2000/svg" in="SourceGraphic" stdDeviation="2.146804531419514"/><feOffset xmlns="http://www.w3.org/2000/svg" dx="5" dy="5" result="pf_100_offsetBlur"/><feFlood xmlns="http://www.w3.org/2000/svg" flood-color="#000000" flood-opacity="0.65"/><feComposite xmlns="http://www.w3.org/2000/svg" in2="pf_100_offsetBlur" operator="in" result="pf_100_dropShadow"/><feBlend xmlns="http://www.w3.org/2000/svg" in="SourceGraphic" in2="pf_100_dropShadow" mode="normal"/></filter></defs><g filter="url(#Mgri6dLJ5rxqstD4GgSgsubMnpmGWP9Z)"><path d=" M 997.935 890.21 L 997.935 890.21 L 997.935 890.21 Q 997.935 956.5 965.063 992.11 L 965.063 992.11 L 965.063 992.11 Q 932.192 1027.721 870.833 1027.721 L 870.833 1027.721 L 870.833 1027.721 Q 809.474 1027.721 776.603 992.11 L 776.603 992.11 L 776.603 992.11 Q 743.731 956.5 743.731 889.845 L 743.731 889.845 L 743.731 889.845 Q 743.731 823.189 776.694 788.036 L 776.694 788.036 L 776.694 788.036 Q 809.656 752.882 871.198 752.882 L 871.198 752.882 L 871.198 752.882 Q 932.74 752.882 965.337 788.31 L 965.337 788.31 L 965.337 788.31 Q 997.935 823.737 997.935 890.21 Z  M 803.082 890.21 L 803.082 890.21 L 803.082 890.21 Q 803.082 934.951 820.065 957.596 L 820.065 957.596 L 820.065 957.596 Q 837.049 980.24 870.833 980.24 L 870.833 980.24 L 870.833 980.24 Q 938.584 980.24 938.584 890.21 L 938.584 890.21 L 938.584 890.21 Q 938.584 799.997 871.198 799.997 L 871.198 799.997 L 871.198 799.997 Q 837.414 799.997 820.248 822.733 L 820.248 822.733 L 820.248 822.733 Q 803.082 845.469 803.082 890.21 Z  M 1109.879 803.467 L 1109.879 875.601 L 1128.141 875.601 L 1128.141 875.601 Q 1154.985 875.601 1167.769 866.652 L 1167.769 866.652 L 1167.769 866.652 Q 1180.552 857.704 1180.552 838.529 L 1180.552 838.529 L 1180.552 838.529 Q 1180.552 819.537 1167.495 811.502 L 1167.495 811.502 L 1167.495 811.502 Q 1154.438 803.467 1127.045 803.467 L 1127.045 803.467 L 1109.879 803.467 L 1109.879 803.467 Z  M 1140.011 921.62 L 1109.879 921.62 L 1109.879 1024.068 L 1053.268 1024.068 L 1053.268 757.082 L 1131.063 757.082 L 1131.063 757.082 Q 1185.482 757.082 1211.597 776.896 L 1211.597 776.896 L 1211.597 776.896 Q 1237.711 796.71 1237.711 837.068 L 1237.711 837.068 L 1237.711 837.068 Q 1237.711 860.626 1224.745 878.979 L 1224.745 878.979 L 1224.745 878.979 Q 1211.779 897.332 1188.039 907.741 L 1188.039 907.741 L 1188.039 907.741 Q 1248.303 997.771 1266.564 1024.068 L 1266.564 1024.068 L 1203.744 1024.068 L 1140.011 921.62 L 1140.011 921.62 Z  M 1413.571 800.362 L 1413.571 800.362 L 1413.571 800.362 Q 1381.613 800.362 1364.082 824.376 L 1364.082 824.376 L 1364.082 824.376 Q 1346.551 848.391 1346.551 891.306 L 1346.551 891.306 L 1346.551 891.306 Q 1346.551 980.605 1413.571 980.605 L 1413.571 980.605 L 1413.571 980.605 Q 1441.694 980.605 1481.688 966.544 L 1481.688 966.544 L 1481.688 1014.024 L 1481.688 1014.024 Q 1448.816 1027.721 1408.275 1027.721 L 1408.275 1027.721 L 1408.275 1027.721 Q 1350.021 1027.721 1319.158 992.384 L 1319.158 992.384 L 1319.158 992.384 Q 1288.296 957.048 1288.296 890.94 L 1288.296 890.94 L 1288.296 890.94 Q 1288.296 849.304 1303.453 817.985 L 1303.453 817.985 L 1303.453 817.985 Q 1318.61 786.666 1347.007 769.957 L 1347.007 769.957 L 1347.007 769.957 Q 1375.404 753.247 1413.571 753.247 L 1413.571 753.247 L 1413.571 753.247 Q 1452.469 753.247 1491.731 772.057 L 1491.731 772.057 L 1473.47 818.076 L 1473.47 818.076 Q 1458.495 810.954 1443.338 805.658 L 1443.338 805.658 L 1443.338 805.658 Q 1428.181 800.362 1413.571 800.362 Z  M 1757.257 757.082 L 1757.257 1024.068 L 1700.828 1024.068 L 1700.828 908.837 L 1595.093 908.837 L 1595.093 1024.068 L 1538.481 1024.068 L 1538.481 757.082 L 1595.093 757.082 L 1595.093 861.722 L 1700.828 861.722 L 1700.828 757.082 L 1757.257 757.082 L 1757.257 757.082 Z  M 1881.254 1024.068 L 1824.643 1024.068 L 1824.643 757.082 L 1881.254 757.082 L 1881.254 1024.068 L 1881.254 1024.068 Z  M 2169.972 888.019 L 2169.972 888.019 L 2169.972 888.019 Q 2169.972 953.943 2132.444 989.006 L 2132.444 989.006 L 2132.444 989.006 Q 2094.916 1024.068 2024.061 1024.068 L 2024.061 1024.068 L 1948.457 1024.068 L 1948.457 757.082 L 2032.278 757.082 L 2032.278 757.082 Q 2097.655 757.082 2133.813 791.597 L 2133.813 791.597 L 2133.813 791.597 Q 2169.972 826.111 2169.972 888.019 Z  M 2111.169 889.479 L 2111.169 889.479 L 2111.169 889.479 Q 2111.169 803.467 2035.2 803.467 L 2035.2 803.467 L 2005.068 803.467 L 2005.068 977.318 L 2029.356 977.318 L 2029.356 977.318 Q 2111.169 977.318 2111.169 889.479 Z  M 2382.903 949.926 L 2382.903 949.926 L 2382.903 949.926 Q 2382.903 986.084 2356.88 1006.902 L 2356.88 1006.902 L 2356.88 1006.902 Q 2330.857 1027.721 2284.473 1027.721 L 2284.473 1027.721 L 2284.473 1027.721 Q 2241.74 1027.721 2208.869 1011.65 L 2208.869 1011.65 L 2208.869 959.057 L 2208.869 959.057 Q 2235.896 971.109 2254.615 976.04 L 2254.615 976.04 L 2254.615 976.04 Q 2273.333 980.971 2288.855 980.971 L 2288.855 980.971 L 2288.855 980.971 Q 2307.482 980.971 2317.435 973.849 L 2317.435 973.849 L 2317.435 973.849 Q 2327.388 966.727 2327.388 952.665 L 2327.388 952.665 L 2327.388 952.665 Q 2327.388 944.813 2323.005 938.695 L 2323.005 938.695 L 2323.005 938.695 Q 2318.622 932.577 2310.13 926.916 L 2310.13 926.916 L 2310.13 926.916 Q 2301.639 921.255 2275.524 908.837 L 2275.524 908.837 L 2275.524 908.837 Q 2251.054 897.332 2238.818 886.74 L 2238.818 886.74 L 2238.818 886.74 Q 2226.583 876.148 2219.278 862.087 L 2219.278 862.087 L 2219.278 862.087 Q 2211.974 848.025 2211.974 829.216 L 2211.974 829.216 L 2211.974 829.216 Q 2211.974 793.788 2235.988 773.518 L 2235.988 773.518 L 2235.988 773.518 Q 2260.002 753.247 2302.369 753.247 L 2302.369 753.247 L 2302.369 753.247 Q 2323.188 753.247 2342.088 758.178 L 2342.088 758.178 L 2342.088 758.178 Q 2360.989 763.108 2381.625 772.057 L 2381.625 772.057 L 2363.363 816.067 L 2363.363 816.067 Q 2341.997 807.302 2328.027 803.832 L 2328.027 803.832 L 2328.027 803.832 Q 2314.057 800.362 2300.543 800.362 L 2300.543 800.362 L 2300.543 800.362 Q 2284.473 800.362 2275.89 807.85 L 2275.89 807.85 L 2275.89 807.85 Q 2267.307 815.337 2267.307 827.39 L 2267.307 827.39 L 2267.307 827.39 Q 2267.307 834.877 2270.776 840.447 L 2270.776 840.447 L 2270.776 840.447 Q 2274.246 846.017 2281.825 851.221 L 2281.825 851.221 L 2281.825 851.221 Q 2289.403 856.426 2317.709 869.939 L 2317.709 869.939 L 2317.709 869.939 Q 2355.146 887.836 2369.024 905.824 L 2369.024 905.824 L 2369.024 905.824 Q 2382.903 923.812 2382.903 949.926 Z  M 856.954 411.936 L 856.954 364.82 L 962.872 364.82 L 962.872 503.244 L 962.872 503.244 Q 937.123 511.645 914.387 515.023 L 914.387 515.023 L 914.387 515.023 Q 891.651 518.401 867.911 518.401 L 867.911 518.401 L 867.911 518.401 Q 807.465 518.401 775.598 482.882 L 775.598 482.882 L 775.598 482.882 Q 743.731 447.363 743.731 380.891 L 743.731 380.891 L 743.731 380.891 Q 743.731 316.244 780.711 280.086 L 780.711 280.086 L 780.711 280.086 Q 817.691 243.928 883.251 243.928 L 883.251 243.928 L 883.251 243.928 Q 924.34 243.928 962.507 260.363 L 962.507 260.363 L 943.697 305.652 L 943.697 305.652 Q 914.479 291.043 882.886 291.043 L 882.886 291.043 L 882.886 291.043 Q 846.18 291.043 824.083 315.696 L 824.083 315.696 L 824.083 315.696 Q 801.986 340.35 801.986 381.986 L 801.986 381.986 L 801.986 381.986 Q 801.986 425.449 819.792 448.368 L 819.792 448.368 L 819.792 448.368 Q 837.597 471.286 871.563 471.286 L 871.563 471.286 L 871.563 471.286 Q 889.277 471.286 907.539 467.634 L 907.539 467.634 L 907.539 411.936 L 856.954 411.936 L 856.954 411.936 Z  M 1083.034 294.147 L 1083.034 366.281 L 1101.296 366.281 L 1101.296 366.281 Q 1128.141 366.281 1140.924 357.333 L 1140.924 357.333 L 1140.924 357.333 Q 1153.707 348.385 1153.707 329.21 L 1153.707 329.21 L 1153.707 329.21 Q 1153.707 310.218 1140.65 302.183 L 1140.65 302.183 L 1140.65 302.183 Q 1127.593 294.147 1100.2 294.147 L 1100.2 294.147 L 1083.034 294.147 L 1083.034 294.147 Z  M 1113.166 412.301 L 1083.034 412.301 L 1083.034 514.749 L 1026.423 514.749 L 1026.423 247.763 L 1104.218 247.763 L 1104.218 247.763 Q 1158.638 247.763 1184.752 267.577 L 1184.752 267.577 L 1184.752 267.577 Q 1210.866 287.391 1210.866 327.749 L 1210.866 327.749 L 1210.866 327.749 Q 1210.866 351.307 1197.9 369.66 L 1197.9 369.66 L 1197.9 369.66 Q 1184.935 388.013 1161.194 398.422 L 1161.194 398.422 L 1161.194 398.422 Q 1221.458 488.452 1239.72 514.749 L 1239.72 514.749 L 1176.899 514.749 L 1113.166 412.301 L 1113.166 412.301 Z  M 1427.085 467.999 L 1427.085 514.749 L 1273.321 514.749 L 1273.321 247.763 L 1427.085 247.763 L 1427.085 294.147 L 1329.933 294.147 L 1329.933 352.768 L 1420.328 352.768 L 1420.328 399.152 L 1329.933 399.152 L 1329.933 467.999 L 1427.085 467.999 L 1427.085 467.999 Z  M 1636.547 467.999 L 1636.547 514.749 L 1482.783 514.749 L 1482.783 247.763 L 1636.547 247.763 L 1636.547 294.147 L 1539.395 294.147 L 1539.395 352.768 L 1629.79 352.768 L 1629.79 399.152 L 1539.395 399.152 L 1539.395 467.999 L 1636.547 467.999 L 1636.547 467.999 Z  M 1929.1 247.763 L 1929.1 514.749 L 1857.148 514.749 L 1741.004 312.774 L 1739.36 312.774 L 1739.36 312.774 Q 1742.83 366.281 1742.83 389.108 L 1742.83 389.108 L 1742.83 514.749 L 1692.245 514.749 L 1692.245 247.763 L 1763.648 247.763 L 1879.61 447.729 L 1880.889 447.729 L 1880.889 447.729 Q 1878.149 395.683 1878.149 374.134 L 1878.149 374.134 L 1878.149 247.763 L 1929.1 247.763 L 1929.1 247.763 Z " fill="rgb(255,255,255)"/></g><defs><filter id="TYEp0IDxHaiva8LZWNhCBm0OLnT6Uu5l" x="-200%" y="-200%" width="400%" height="400%" filterUnits="objectBoundingBox" color-interpolation-filters="sRGB"><feGaussianBlur xmlns="http://www.w3.org/2000/svg" in="SourceGraphic" stdDeviation="2.146804531419514"/><feOffset xmlns="http://www.w3.org/2000/svg" dx="5" dy="5" result="pf_100_offsetBlur"/><feFlood xmlns="http://www.w3.org/2000/svg" flood-color="#000000" flood-opacity="0.65"/><feComposite xmlns="http://www.w3.org/2000/svg" in2="pf_100_offsetBlur" operator="in" result="pf_100_dropShadow"/><feBlend xmlns="http://www.w3.org/2000/svg" in="SourceGraphic" in2="pf_100_dropShadow" mode="normal"/></filter></defs><defs><filter id="XAbYbFnmTFgsjGDIJdvsjvVMm5p1A4Km" x="-200%" y="-200%" width="400%" height="400%" filterUnits="objectBoundingBox" color-interpolation-filters="sRGB"><feGaussianBlur xmlns="http://www.w3.org/2000/svg" in="SourceGraphic" stdDeviation="2.146804531419514"/><feOffset xmlns="http://www.w3.org/2000/svg" dx="5" dy="5" result="pf_100_offsetBlur"/><feFlood xmlns="http://www.w3.org/2000/svg" flood-color="#000000" flood-opacity="0.65"/><feComposite xmlns="http://www.w3.org/2000/svg" in2="pf_100_offsetBlur" operator="in" result="pf_100_dropShadow"/><feBlend xmlns="http://www.w3.org/2000/svg" in="SourceGraphic" in2="pf_100_dropShadow" mode="normal"/></filter><mask id="_mask_gBabRwmg3fX9Sx7tXvRWXRQsEmFSHa3T"><path d="M 0 265 L 788 265 L 788 967 L 0 967 L 0 265 Z" style="stroke:black;fill:white;stroke-miterlimit:10;"/></mask><mask id="_mask_ofd7JXxIg0D7Ku2GXzaEuYDVASikTEQB"><path d="M 0 265 L 788 265 L 788 967 L 0 967 L 0 265 Z" style="stroke:black;fill:white;stroke-miterlimit:10;"/></mask></defs><g filter="url(#XAbYbFnmTFgsjGDIJdvsjvVMm5p1A4Km)"><g mask="url(#_mask_ofd7JXxIg0D7Ku2GXzaEuYDVASikTEQB)"><g mask="url(#_mask_gBabRwmg3fX9Sx7tXvRWXRQsEmFSHa3T)"/></g></g><g filter="url(#XAbYbFnmTFgsjGDIJdvsjvVMm5p1A4Km)"><g mask="url(#_mask_gBabRwmg3fX9Sx7tXvRWXRQsEmFSHa3T)"><use xlink:href="#img_BoPGrNl7DqzYJGuXAT4DMPfaLaDs0TCl" transform="matrix(1.576,0,0,1.404,0,265)" preserveAspectRatio="none" style=""/></g></g><defs><image width="500" height="500" xlink:href="cloud://id=EYCzNVr8H" id="img_BoPGrNl7DqzYJGuXAT4DMPfaLaDs0TCl"/></defs></svg>